<svg width="74" height="71" viewBox="0 0 74 71" fill="none" xmlns="http://www.w3.org/2000/svg">
<path d="M1.602 67C1.338 67 1.116 66.91 0.936 66.73C0.756 66.55 0.666 66.328 0.666 66.064V53.878C0.666 53.602 0.756 53.38 0.936 53.212C1.116 53.032 1.338 52.942 1.602 52.942H9.738C10.014 52.942 10.236 53.026 10.404 53.194C10.572 53.35 10.656 53.56 10.656 53.824C10.656 54.076 10.572 54.28 10.404 54.436C10.236 54.592 10.014 54.67 9.738 54.67H2.538V59.044H7.704C7.98 59.044 8.202 59.128 8.37 59.296C8.538 59.452 8.622 59.656 8.622 59.908C8.622 60.16 8.538 60.37 8.37 60.538C8.202 60.694 7.98 60.772 7.704 60.772H2.538V66.064C2.538 66.328 2.448 66.55 2.268 66.73C2.088 66.91 1.866 67 1.602 67ZM15.21 67C14.682 67 14.214 66.856 13.806 66.568C13.398 66.28 13.08 65.89 12.852 65.398C12.624 64.894 12.51 64.318 12.51 63.67V53.842C12.51 53.578 12.594 53.362 12.762 53.194C12.93 53.026 13.146 52.942 13.41 52.942C13.674 52.942 13.89 53.026 14.058 53.194C14.226 53.362 14.31 53.578 14.31 53.842V63.67C14.31 64.114 14.394 64.48 14.562 64.768C14.73 65.056 14.946 65.2 15.21 65.2H15.66C15.9 65.2 16.092 65.284 16.236 65.452C16.392 65.62 16.47 65.836 16.47 66.1C16.47 66.364 16.356 66.58 16.128 66.748C15.9 66.916 15.606 67 15.246 67H15.21ZM22.4065 67.09C21.5785 67.09 20.8345 66.916 20.1745 66.568C19.5265 66.208 19.0105 65.686 18.6265 65.002C18.2545 64.318 18.0685 63.478 18.0685 62.482V58.054C18.0685 57.79 18.1525 57.574 18.3205 57.406C18.5005 57.226 18.7225 57.136 18.9865 57.136C19.2505 57.136 19.4665 57.226 19.6345 57.406C19.8145 57.574 19.9045 57.79 19.9045 58.054V62.482C19.9045 63.154 20.0305 63.712 20.2825 64.156C20.5345 64.588 20.8765 64.912 21.3085 65.128C21.7405 65.332 22.2265 65.434 22.7665 65.434C23.2825 65.434 23.7385 65.332 24.1345 65.128C24.5425 64.924 24.8665 64.648 25.1065 64.3C25.3465 63.952 25.4665 63.562 25.4665 63.13H26.6005C26.6005 63.874 26.4145 64.546 26.0425 65.146C25.6825 65.746 25.1845 66.22 24.5485 66.568C23.9245 66.916 23.2105 67.09 22.4065 67.09ZM26.3845 67C26.1205 67 25.8985 66.916 25.7185 66.748C25.5505 66.568 25.4665 66.346 25.4665 66.082V58.054C25.4665 57.778 25.5505 57.556 25.7185 57.388C25.8985 57.22 26.1205 57.136 26.3845 57.136C26.6605 57.136 26.8825 57.22 27.0505 57.388C27.2185 57.556 27.3025 57.778 27.3025 58.054V66.082C27.3025 66.346 27.2185 66.568 27.0505 66.748C26.8825 66.916 26.6605 67 26.3845 67ZM35 67.072C34.028 67.072 33.17 66.862 32.426 66.442C31.682 66.01 31.094 65.422 30.662 64.678C30.242 63.922 30.032 63.058 30.032 62.086C30.032 61.102 30.242 60.238 30.662 59.494C31.094 58.738 31.682 58.15 32.426 57.73C33.17 57.298 34.028 57.082 35 57.082C35.96 57.082 36.812 57.298 37.556 57.73C38.3 58.15 38.882 58.738 39.302 59.494C39.734 60.238 39.95 61.102 39.95 62.086C39.95 63.058 39.74 63.922 39.32 64.678C38.9 65.422 38.318 66.01 37.574 66.442C36.83 66.862 35.972 67.072 35 67.072ZM35 65.452C35.624 65.452 36.176 65.308 36.656 65.02C37.136 64.732 37.508 64.336 37.772 63.832C38.048 63.328 38.186 62.746 38.186 62.086C38.186 61.426 38.048 60.844 37.772 60.34C37.508 59.824 37.136 59.422 36.656 59.134C36.176 58.846 35.624 58.702 35 58.702C34.376 58.702 33.824 58.846 33.344 59.134C32.864 59.422 32.486 59.824 32.21 60.34C31.934 60.844 31.796 61.426 31.796 62.086C31.796 62.746 31.934 63.328 32.21 63.832C32.486 64.336 32.864 64.732 33.344 65.02C33.824 65.308 34.376 65.452 35 65.452ZM43.5645 60.844C43.5645 60.124 43.7385 59.482 44.0865 58.918C44.4465 58.342 44.9265 57.886 45.5265 57.55C46.1265 57.214 46.7865 57.046 47.5065 57.046C48.2265 57.046 48.7605 57.166 49.1085 57.406C49.4685 57.634 49.6065 57.91 49.5225 58.234C49.4865 58.402 49.4145 58.534 49.3065 58.63C49.2105 58.714 49.0965 58.768 48.9645 58.792C48.8325 58.816 48.6885 58.81 48.5325 58.774C47.7645 58.618 47.0745 58.606 46.4625 58.738C45.8505 58.87 45.3645 59.116 45.0045 59.476C44.6565 59.836 44.4825 60.292 44.4825 60.844H43.5645ZM43.5825 67C43.2945 67 43.0725 66.928 42.9165 66.784C42.7605 66.628 42.6825 66.4 42.6825 66.1V58.054C42.6825 57.766 42.7605 57.544 42.9165 57.388C43.0725 57.232 43.2945 57.154 43.5825 57.154C43.8825 57.154 44.1045 57.232 44.2485 57.388C44.4045 57.532 44.4825 57.754 44.4825 58.054V66.1C44.4825 66.388 44.4045 66.61 44.2485 66.766C44.1045 66.922 43.8825 67 43.5825 67ZM52.5344 67C52.2704 67 52.0484 66.916 51.8684 66.748C51.7004 66.568 51.6164 66.346 51.6164 66.082V58.072C51.6164 57.796 51.7004 57.574 51.8684 57.406C52.0484 57.238 52.2704 57.154 52.5344 57.154C52.8104 57.154 53.0324 57.238 53.2004 57.406C53.3684 57.574 53.4524 57.796 53.4524 58.072V66.082C53.4524 66.346 53.3684 66.568 53.2004 66.748C53.0324 66.916 52.8104 67 52.5344 67ZM52.5344 55.552C52.2104 55.552 51.9284 55.438 51.6884 55.21C51.4604 54.97 51.3464 54.688 51.3464 54.364C51.3464 54.04 51.4604 53.764 51.6884 53.536C51.9284 53.296 52.2104 53.176 52.5344 53.176C52.8584 53.176 53.1344 53.296 53.3624 53.536C53.6024 53.764 53.7224 54.04 53.7224 54.364C53.7224 54.688 53.6024 54.97 53.3624 55.21C53.1344 55.438 52.8584 55.552 52.5344 55.552ZM60.45 67C59.85 67 59.31 66.85 58.83 66.55C58.35 66.238 57.972 65.818 57.696 65.29C57.42 64.762 57.282 64.168 57.282 63.508V54.922C57.282 54.658 57.366 54.442 57.534 54.274C57.702 54.106 57.918 54.022 58.182 54.022C58.446 54.022 58.662 54.106 58.83 54.274C58.998 54.442 59.082 54.658 59.082 54.922V63.508C59.082 63.988 59.214 64.39 59.478 64.714C59.742 65.038 60.066 65.2 60.45 65.2H61.062C61.278 65.2 61.458 65.284 61.602 65.452C61.758 65.62 61.836 65.836 61.836 66.1C61.836 66.364 61.734 66.58 61.53 66.748C61.338 66.916 61.086 67 60.774 67H60.45ZM56.454 59.062C56.202 59.062 55.998 58.99 55.842 58.846C55.686 58.702 55.608 58.522 55.608 58.306C55.608 58.066 55.686 57.874 55.842 57.73C55.998 57.586 56.202 57.514 56.454 57.514H60.612C60.864 57.514 61.068 57.586 61.224 57.73C61.38 57.874 61.458 58.066 61.458 58.306C61.458 58.522 61.38 58.702 61.224 58.846C61.068 58.99 60.864 59.062 60.612 59.062H56.454ZM68.7187 67.072C67.7227 67.072 66.8347 66.862 66.0547 66.442C65.2867 66.01 64.6807 65.422 64.2367 64.678C63.8047 63.922 63.5887 63.058 63.5887 62.086C63.5887 61.102 63.7927 60.238 64.2007 59.494C64.6207 58.738 65.1967 58.15 65.9287 57.73C66.6607 57.298 67.5007 57.082 68.4487 57.082C69.3847 57.082 70.1887 57.292 70.8607 57.712C71.5327 58.12 72.0427 58.69 72.3907 59.422C72.7507 60.142 72.9307 60.976 72.9307 61.924C72.9307 62.152 72.8527 62.344 72.6967 62.5C72.5407 62.644 72.3427 62.716 72.1027 62.716H64.8487V61.276H72.0487L71.3107 61.78C71.2987 61.18 71.1787 60.646 70.9507 60.178C70.7227 59.698 70.3987 59.32 69.9787 59.044C69.5587 58.768 69.0487 58.63 68.4487 58.63C67.7647 58.63 67.1767 58.78 66.6847 59.08C66.2047 59.38 65.8387 59.794 65.5867 60.322C65.3347 60.838 65.2087 61.426 65.2087 62.086C65.2087 62.746 65.3587 63.334 65.6587 63.85C65.9587 64.366 66.3727 64.774 66.9007 65.074C67.4287 65.374 68.0347 65.524 68.7187 65.524C69.0907 65.524 69.4687 65.458 69.8527 65.326C70.2487 65.182 70.5667 65.02 70.8067 64.84C70.9867 64.708 71.1787 64.642 71.3827 64.642C71.5987 64.63 71.7847 64.69 71.9407 64.822C72.1447 65.002 72.2527 65.2 72.2647 65.416C72.2767 65.632 72.1807 65.818 71.9767 65.974C71.5687 66.298 71.0587 66.562 70.4467 66.766C69.8467 66.97 69.2707 67.072 68.7187 67.072Z" fill="black"/>
<path d="M24.2775 20.3182C25.0998 17.25 28.2537 14.0961 31.322 13.2738L50.4509 8.14743C53.5192 7.32516 55.3399 9.14591 54.5177 12.2142L49.3913 31.3432C48.569 34.4114 45.4151 37.5653 42.3469 38.3876L23.2179 43.514C20.1496 44.3362 18.3289 42.5155 19.1511 39.4472L24.2775 20.3182Z" fill="#B8B8FF"/>
<path d="M16.6088 12.6493C17.4311 9.58107 20.585 6.42717 23.6533 5.60491L42.7822 0.47854C45.8505 -0.343725 47.6713 1.47702 46.849 4.54529L41.7226 23.6743C40.9004 26.7425 37.7465 29.8964 34.6782 30.7187L15.5492 35.8451C12.4809 36.6673 10.6602 34.8466 11.4824 31.7783L16.6088 12.6493Z" fill="#5051F9"/>
</svg>
