<svg width="24" height="24" viewBox="0 0 24 24" fill="none" xmlns="http://www.w3.org/2000/svg">
<path d="M13.5 21.4021C13.5 21.0115 13.3448 20.6365 13.0688 20.3604L3.51458 10.8062C3.23854 10.5302 2.86354 10.375 2.47292 10.375C1.65937 10.375 1 11.0344 1 11.8479C1 12.2385 1.15521 12.6135 1.43125 12.8896L10.9849 22.4432C11.2609 22.7193 11.6359 22.8745 12.0266 22.8745C12.8406 22.875 13.5 22.2156 13.5 21.4021Z" stroke="#5051F9" stroke-miterlimit="10"/>
<path d="M3.51458 14.9729C3.23854 14.6969 2.86354 14.5417 2.47292 14.5417C1.65938 14.5417 1 15.201 1 16.0146C1 16.4052 1.15521 16.7802 1.43125 17.0562L6.81823 22.4432C7.09427 22.7193 7.46927 22.8745 7.8599 22.8745C8.67396 22.875 9.33333 22.2156 9.33333 21.4021C9.33333 21.0114 9.17813 20.6364 8.90208 20.3604" stroke="#5051F9" stroke-miterlimit="10"/>
<path d="M3.08337 18.7083L1.52087 20.2708L3.60421 22.3542L5.16671 20.7917" stroke="#5051F9" stroke-miterlimit="10"/>
<path d="M10.375 2.47292C10.375 2.86354 10.5302 3.23854 10.8062 3.51458L20.3599 13.0682C20.6359 13.3443 21.0109 13.4995 21.4016 13.4995C22.2156 13.5 22.875 12.8406 22.875 12.0271C22.875 11.6365 22.7198 11.2615 22.4438 10.9854L12.8896 1.43125C12.6135 1.15521 12.2385 1 11.8479 1C11.0344 1 10.375 1.65937 10.375 2.47292V2.47292Z" stroke="#5051F9" stroke-miterlimit="10"/>
<path d="M20.3604 8.90208C20.6364 9.17813 21.0114 9.33333 21.402 9.33333C22.2156 9.33333 22.875 8.67396 22.875 7.86042C22.875 7.46979 22.7198 7.09479 22.4437 6.81875L17.0562 1.43125C16.7802 1.15521 16.4052 1 16.0145 1C15.201 1 14.5416 1.65938 14.5416 2.47292C14.5416 2.86354 14.6968 3.23854 14.9729 3.51458" stroke="#5051F9" stroke-miterlimit="10"/>
<path d="M20.7917 5.16668L22.3542 3.60418L20.2709 1.52084L18.7084 3.08334" stroke="#5051F9" stroke-miterlimit="10"/>
<path d="M7.25 14.5417L14.5417 7.25" stroke="#5051F9" stroke-miterlimit="10"/>
<path d="M9.33337 16.625L16.625 9.33334" stroke="#5051F9" stroke-miterlimit="10"/>
</svg>
